<svg xmlns="http://www.w3.org/2000/svg" viewBox="0 0 576 136.94"><defs><style>.cls-1{fill:#fff;}</style></defs><g id="Guides"><path class="cls-1" d="M26.44,52.77H47.53v10H9.68v-8L30.15,31.23H10.46v-10H46.84v8Z"/><path class="cls-1" d="M96.89,42c0,12.82-9.11,21.32-22.71,21.32S51.4,54.78,51.4,42s9.11-21.24,22.78-21.24S96.89,29.14,96.89,42Zm-32,.16c0,6.48,3.78,10.81,9.34,10.81s9.27-4.33,9.27-10.81S79.67,31.3,74.18,31.3,64.84,35.7,64.84,42.12Z"/><path class="cls-1" d="M140.92,35.63V62.82h-13V58c-2.7,3.55-7.11,5.4-12.75,5.4-8.88,0-14.29-5.4-14.29-13,0-7.88,5.64-12.51,16-12.59h11v-.62c0-4.09-2.7-6.56-8.11-6.56a29.25,29.25,0,0,0-12.43,3.47l-3.79-8.8c6.49-3,12.36-4.71,19.31-4.71C134.2,20.57,140.85,26.2,140.92,35.63Zm-13.13,13V45h-8.42c-4,0-6,1.39-6,4.48s2.16,4.95,5.87,4.95C123.39,54.4,126.94,52.08,127.79,48.68Z"/><path class="cls-1" d="M163.79,28.21a15.19,15.19,0,0,1,13.52-7.64v12c-7.73-.69-12.82,2.94-13.52,8.81v21.4H150.43V21.18h13.36Z"/><path class="cls-1" d="M225.35,62.82H212V57.33a15.08,15.08,0,0,1-12.51,6c-11.74,0-19.47-8.65-19.47-21.55s7.65-21.17,19.16-21.17a15.47,15.47,0,0,1,12.82,6V5.5h13.36ZM212,42.12c0-6.42-3.71-10.82-9.27-10.82s-9.27,4.4-9.35,10.82c.08,6.41,3.79,10.89,9.35,10.89S212,48.53,212,42.12Z"/><path class="cls-1" d="M293.56,45.59H264.29c1.31,4.94,4.86,7.72,9.81,7.72a14,14,0,0,0,10-4.24l7,6.87c-4.25,4.64-10.51,7.34-18.15,7.34-13.6,0-22.09-8.5-22.09-21.16,0-12.9,8.8-21.4,21.7-21.4C287.23,20.72,294.49,30.38,293.56,45.59Zm-12.82-7.18c0-5.1-3.25-8.42-8-8.42s-7.8,3.4-8.65,8.42Z"/><path class="cls-1" d="M343.77,36.55V62.82H330.41V40.26c0-4.86-2.78-7.88-7.34-7.88-5.25,0-8.5,4.17-8.5,9.89V62.82H301.21V5.5h13.36V28.06c2.94-4.95,7.81-7.42,14-7.49C337.74,20.57,343.77,26.82,343.77,36.55Z"/><path class="cls-1" d="M423.8,36.55V62.82H410.51V40.26c0-4.94-2.78-7.95-7.18-7.95-5,.15-8.11,4.24-8.11,9.88V62.82H381.85V40.26c0-4.94-2.7-7.95-7.1-7.95-5.1.15-8.27,4.24-8.27,9.88V62.82H353.2V21.18h13.28v6.88c2.86-4.95,7.65-7.42,13.75-7.49,6.8,0,11.82,3.55,13.91,9.42,2.7-6.18,7.8-9.35,14.67-9.42C417.92,20.57,423.8,26.82,423.8,36.55Z"/><path class="cls-1" d="M470.15,35.63V62.82H457.09V58c-2.7,3.55-7.1,5.4-12.74,5.4-8.88,0-14.29-5.4-14.29-13,0-7.88,5.64-12.51,16-12.59h11v-.62c0-4.09-2.71-6.56-8.11-6.56a29.25,29.25,0,0,0-12.44,3.47l-3.78-8.8c6.48-3,12.35-4.71,19.3-4.71C463.43,20.57,470.07,26.2,470.15,35.63ZM457,48.68V45H448.6c-4,0-6,1.39-6,4.48s2.17,4.95,5.87,4.95C452.61,54.4,456.17,52.08,457,48.68Z"/><path class="cls-1" d="M522.13,36.55V62.82H508.85V40.26c0-4.86-2.86-7.88-7.34-7.88-4.87,0-8,3.48-8.5,8.42v22H479.65V21.18H493V28c2.94-4.87,7.73-7.34,13.91-7.41C516.11,20.57,522.13,26.82,522.13,36.55Z"/><path class="cls-1" d="M574.12,36.55V62.82H560.83V40.26c0-4.86-2.85-7.88-7.33-7.88-4.87,0-8,3.48-8.5,8.42v22H531.64V21.18H545V28c2.93-4.87,7.72-7.34,13.9-7.41C568.09,20.57,574.12,26.82,574.12,36.55Z"/><path class="cls-1" d="M30.39,123.45l-7.56-20.88-7.51,20.88h-4L1.76,97.74h4l7.61,21.76,7.46-21.76h4l7.56,21.76,7.52-21.76h4l-9.52,25.71Z"/><path class="cls-1" d="M79.43,112.09h-21a9,9,0,0,0,9.32,8.19,10.72,10.72,0,0,0,8-3.22l2.1,2.25a13.52,13.52,0,0,1-10.35,4.29c-7.56,0-12.78-5.32-12.78-13s5.27-13,12.74-13C75.72,97.6,79.82,103.35,79.43,112.09ZM76,109c-.24-4.92-3.56-8-8.58-8a8.67,8.67,0,0,0-9,8Z"/><path class="cls-1" d="M122,110.67c0,7.61-5,12.93-12.25,12.93a10.78,10.78,0,0,1-10-5.66v5.51H96V87.26h3.8v16a10.68,10.68,0,0,1,9.9-5.71C116.94,97.6,122,103,122,110.67Zm-3.86-.1c0-5.51-3.8-9.56-9.17-9.56s-9.22,4-9.22,9.56,3.81,9.57,9.22,9.57S118.16,116.14,118.16,110.57Z"/><path class="cls-1" d="M185.2,123.45h-3.81v-5.51c-1.9,3.61-5.41,5.71-10,5.71-7.32,0-12.39-5.42-12.39-13.08s5.07-13,12.34-13c4.59,0,8.15,2.1,10,5.76v-16h3.81Zm-3.81-12.78c0-5.61-3.85-9.66-9.27-9.66s-9.31,4-9.31,9.66,3.85,9.56,9.31,9.56S181.39,116.23,181.39,110.67Z"/><path class="cls-1" d="M226.62,112.09h-21a9,9,0,0,0,9.32,8.19,10.72,10.72,0,0,0,7.95-3.22l2.1,2.25a13.52,13.52,0,0,1-10.35,4.29c-7.56,0-12.78-5.32-12.78-13s5.27-13,12.74-13C222.91,97.6,227,103.35,226.62,112.09ZM223.2,109c-.24-4.92-3.56-8-8.58-8a8.68,8.68,0,0,0-9,8Z"/><path class="cls-1" d="M247.84,123.45,237.65,97.74h4l8.19,21.76L258,97.74h3.85l-10.1,25.71Z"/><path class="cls-1" d="M297.46,112.09h-21a9,9,0,0,0,9.32,8.19,10.72,10.72,0,0,0,7.95-3.22l2.1,2.25a13.52,13.52,0,0,1-10.35,4.29c-7.56,0-12.78-5.32-12.78-13s5.27-13,12.74-13C293.75,97.6,297.85,103.35,297.46,112.09ZM294,109c-.24-4.92-3.56-8-8.58-8a8.68,8.68,0,0,0-9,8Z"/><path class="cls-1" d="M314,123.45V87.26h3.8v36.19Z"/><path class="cls-1" d="M360.54,110.57c0,7.71-5.42,13-13,13s-13-5.32-13-13,5.41-12.92,13-12.92S360.54,102.92,360.54,110.57Zm-22.25.05c0,5.66,3.86,9.56,9.22,9.56s9.22-3.9,9.22-9.56-3.85-9.51-9.22-9.51S338.29,105,338.29,110.62Z"/><path class="cls-1" d="M401.33,110.67c0,7.61-5,12.93-12.25,12.93-4.59,0-8.1-2.1-10-5.66v15h-3.81V97.74h3.81v5.57A10.67,10.67,0,0,1,389,97.6C396.25,97.6,401.33,103,401.33,110.67Zm-3.86-.1c0-5.51-3.8-9.56-9.17-9.56s-9.22,4-9.22,9.56,3.81,9.57,9.22,9.57S397.47,116.14,397.47,110.57Z"/><path class="cls-1" d="M460.26,107.6v15.85h-3.81V108.62c0-4.58-2.68-7.27-7.12-7.27-5.32.15-8.39,4-8.39,9.47v12.63h-3.85V108.62c0-4.58-2.64-7.27-7.12-7.27-5.27.15-8.44,4-8.44,9.47v12.63h-3.76V97.74h3.76v5.81c1.7-4,5.17-5.9,9.8-6,4.83,0,8.15,2.49,9.22,6.73,1.61-4.54,5.22-6.68,10.15-6.73C456.7,97.6,460.26,101.4,460.26,107.6Z"/><path class="cls-1" d="M500.61,112.09h-21a9,9,0,0,0,9.32,8.19,10.72,10.72,0,0,0,7.95-3.22l2.1,2.25a13.51,13.51,0,0,1-10.34,4.29c-7.57,0-12.78-5.32-12.78-13s5.26-13,12.73-13C496.9,97.6,501,103.35,500.61,112.09ZM497.19,109c-.24-4.92-3.56-8-8.58-8a8.68,8.68,0,0,0-9,8Z"/><path class="cls-1" d="M540.42,107.6v15.85h-3.81V108.62c0-4.53-2.73-7.22-7.26-7.22-5.08,0-8.2,3.37-8.64,8.25v13.8h-3.8V97.74h3.8v5.66c1.81-3.9,5.27-5.75,9.95-5.8C536.81,97.6,540.42,101.4,540.42,107.6Z"/><path class="cls-1" d="M572.91,121.7a10.72,10.72,0,0,1-5.8,2c-3.76,0-6.54-2.25-6.54-7.32V101.65h-3.71V98.57h3.71V91.79h3.76v6.78l8.14,0v3.13h-8.14v14c0,3.12,1.22,4.29,3.41,4.29a7.78,7.78,0,0,0,4.1-1.32Z"/></g></svg>